<svg xmlns="http://www.w3.org/2000/svg" x="0" y="0" enable-background="new 0 0 512 512" version="1.1" viewBox="0 0 512 512" xml:space="preserve"><circle cx="256" cy="256" r="256" fill="#00FFEA"/><path fill="#00CEB4" d="M512,256c0-11.432-0.761-22.685-2.213-33.72l-21.496-21.496	c-11.901-15.827-32.819-19.783-49.203-11.677L297.956,47.714c-10.838-10.549-25.639-17.048-41.958-17.048	c-33.229,0-60.167,26.938-60.167,60.167c0,16.813,6.898,32.015,18.017,42.932l57.927,57.803l-9.992,13.102l-34.536-34.669	c-23.756-26.423-66.502-25.375-88.681,3.707l-32.934,43.183L86.61,197.376c-16.413-17.437-45.192-16.499-60.22,3.206L0.957,233.93	c-0.144,1.69-0.27,3.385-0.382,5.083c-0.02,0.303-0.039,0.607-0.058,0.91c-0.094,1.484-0.175,2.972-0.243,4.463	c-0.034,0.759-0.059,1.52-0.087,2.281c-0.042,1.122-0.085,2.244-0.112,3.37C0.03,252.02,0,254.006,0,256	c0,1.115,0.028,2.222,0.042,3.333c0.001,0,171.111,170.477,253.086,252.63c0.958,0.01,1.911,0.036,2.872,0.036	C397.385,512,512,397.385,512,256z"/><circle cx="256" cy="90.83" r="60.17" fill="#FFDF47"/><path fill="#FDC000" d="M316.169,90.833c0,33.229-26.938,60.167-60.167,60.167V30.667	C289.231,30.667,316.169,57.604,316.169,90.833z"/><path fill="#E67500" d="M90.011,201.48c-15.523-21.592-47.495-22.043-63.621-0.898L0.957,233.93	C0.336,241.206,0,248.563,0,256c0,1.115,0.028,2.222,0.042,3.333h131.562L90.011,201.48z"/><path fill="#9A4C00" d="M425.203,200.582l-44.807,58.751h131.562c0.014-1.111,0.042-2.219,0.042-3.333	c0-8.038-0.389-15.984-1.114-23.833l-22.062-30.688C473.301,179.888,441.329,179.437,425.203,200.582z"/><path fill="#C06100" d="M220.094,259.333l65.302-85.625c23.503-30.817,70.1-30.159,92.723,1.309l60.618,84.316H220.094z"/><path fill="#FF8900" d="M73.264,259.333l65.302-85.625c23.503-30.817,70.1-30.159,92.723,1.309l60.618,84.316H73.264z"/><path fill="#E67500" d="M291.91 259.333L256 259.333 256 209.391 284.057 248.416z"/><path fill="#FFB84D" d="M256,512c141.385,0,256-114.615,256-256H0C0,397.385,114.615,512,256,512z"/><path fill="#FF9A00" d="M512,256c0,141.38-114.62,256-256,256V256H512z"/><g fill="#C06100"><path d="M352.33 318.67H416V333.00300000000004H352.33z"/><path d="M427.33 277.33H491V291.663H427.33z"/><path d="M387.19 369.67H450.86V384.00300000000004H387.19z"/></g><g fill="#FF9A00"><path d="M104.67 314H168.34V328.333H104.67z"/><path d="M28.792 266.17H92.462V280.50300000000004H28.792z"/></g><path fill="#57555C" d="M222.636,256l-97.829,219.856C163.175,498.801,208.044,512,256,512s92.824-13.199,131.193-36.144	L289.364,256H222.636z"/><path fill="#2A2A2C" d="M387.19,475.86C348.82,498.8,303.96,512,256,512V256h33.36L387.19,475.86z"/><path fill="#FFF" d="M276.81,511.16c-6.86,0.56-13.8,0.84-20.81,0.84c-7.01,0-13.95-0.28-20.81-0.84l3.13-51.16h35.36	L276.81,511.16z"/><path fill="#FFED97" d="M276.81,511.16c-6.86,0.56-13.8,0.84-20.81,0.84v-52h17.68L276.81,511.16z"/><path fill="#FFF" d="M240.825 419L271.175 419 267.475 358.5 244.525 358.5z"/><path fill="#FFED97" d="M271.17 419L256 419 256 358.5 267.47 358.5z"/><path fill="#FFF" d="M262.001 269L249.999 269 249.051 284.5 262.949 284.5z"/><path fill="#FFED97" d="M262.95 284.5L256 284.5 256 269 262 269z"/><path fill="#FFF" d="M248.057 300.75L246.085 333 265.915 333 263.943 300.75z"/><path fill="#FFED97" d="M265.92 333L256 333 256 300.75 263.94 300.75z"/><path fill="#36CD90" d="M142.012,261.379c-3.929,0-7.114,3.185-7.114,7.114v21.342h-8.179v-29.88	c0-11.708-9.579-21.287-21.287-21.287l0,0c-11.708,0-21.287,9.579-21.287,21.287v56.172h-9.292v-21.342	c0-3.929-3.185-7.114-7.114-7.114s-7.114,3.185-7.114,7.114v28.456c0,3.929,3.185,7.114,7.114,7.114h16.406v29.734h42.574v-56.026	h15.292c3.929,0,7.114-3.185,7.114-7.114v-28.456C149.126,264.564,145.941,261.379,142.012,261.379z"/><path fill="#00A753" d="M149.126,268.49v28.46c0,3.925-3.187,7.113-7.113,7.113h-15.295v56.025h-21.841V238.674	c0.185-0.005,0.369-0.009,0.553-0.009c11.711,0,21.287,9.58,21.287,21.287v29.88h8.183V268.49c0-3.925,3.183-7.113,7.113-7.113	C145.939,261.377,149.126,264.565,149.126,268.49z"/><path fill="#FF8900" d="M135.76,376.808H75.105v-1.65c0-9.916,8.038-17.954,17.954-17.954h24.748	c9.916,0,17.954,8.038,17.954,17.954v1.65H135.76z"/><path fill="#E67500" d="M135.759,374.04v2.768h-30.881v-19.604h14.045c2.814,0,5.461,0.687,7.795,1.91	C132.092,361.923,135.759,367.555,135.759,374.04z"/><path fill="#00C379" d="M391.594,235.884c-1.987,0-3.598,1.611-3.598,3.598v10.795h-4.137v-15.114	c0-5.922-4.845-10.768-10.768-10.768l0,0c-5.922,0-10.768,4.846-10.768,10.768v28.413h-4.7v-10.795c0-1.987-1.611-3.598-3.598-3.598	s-3.598,1.611-3.598,3.598v14.394c0,1.987,1.611,3.598,3.598,3.598h8.299v15.04h21.535v-28.339h7.735	c1.987,0,3.598-1.611,3.598-3.598v-14.394C395.192,237.495,393.581,235.884,391.594,235.884z"/><path fill="#00A753" d="M395.192,239.481v14.396c0,1.986-1.612,3.598-3.598,3.598h-7.737v28.339H372.81V224.4	c0.093-0.002,0.187-0.005,0.28-0.005c5.924,0,10.768,4.846,10.768,10.768v15.114h4.139v-10.796c0-1.986,1.61-3.598,3.598-3.598	C393.58,235.884,395.192,237.496,395.192,239.481z"/><path fill="#BE6200" d="M388.431,294.272H357.75l0,0c0-5.477,4.44-9.916,9.916-9.916h10.849	C383.992,284.356,388.431,288.795,388.431,294.272L388.431,294.272z"/><path fill="#703700" d="M388.43,292.872v1.4h-15.62v-9.916h7.105c1.423,0,2.762,0.348,3.943,0.966	C386.575,286.742,388.43,289.591,388.43,292.872z"/></svg>