<svg xmlns="http://www.w3.org/2000/svg" x="0" y="0" enable-background="new 0 0 512 512" version="1.1" viewBox="0 0 512 512" xml:space="preserve"><circle cx="256" cy="256" r="256" fill="#00FFEA"/><path fill="#00CEB4" d="M512,256c0-6.447-0.244-12.838-0.713-19.165L350.347,75.657C337.554,61.734,319.204,53,298.805,53	c-38.66,0-70,31.34-70,70c0,20.016,8.409,38.06,21.879,50.817l78.158,77.844c0.029,0.034,0.059,0.067,0.087,0.101l-16.631,21.507	L201.113,161l-162,209.5L163.3,494.687C192.046,505.86,223.304,512,256,512C397.385,512,512,397.385,512,256z"/><path fill="#E67500" d="M360.324 211.162L237.113 370.5 472.887 370.5z"/><path fill="#C06100" d="M360.324 211.162L418.75 370.5 472.887 370.5z"/><path fill="#FFAA20" d="M201.113 161L39.113 370.5 349.113 370.5z"/><path fill="#FF8900" d="M201.113 161L262.333 370.5 349.113 370.5z"/><path fill="#FFC473" d="M256,512c100.82,0,188.013-58.29,229.755-143H26.245C67.987,453.71,155.18,512,256,512z"/><path fill="#FFAA20" d="M485.76,369c-40.94,83.06-125.55,140.71-223.87,142.93V369H485.76z"/><circle cx="298.81" cy="123" r="70" fill="#FFDF47"/><g fill="#FFAA20"><path d="M129.54 395.75H191V414.41700000000003H129.54z"/><path d="M98.83 395.75H118.87V414.41700000000003H98.83z"/><path d="M156 444.83H230.64V463.49699999999996H156z"/></g><g fill="#FF8900"><path d="M280.31 438.58H298.811V457.24699999999996H280.31z"/><path d="M309.63 438.58H356.88V457.24699999999996H309.63z"/><path d="M360.32 392.42H427.81V411.087H360.32z"/></g><path fill="#FFAA20" d="M246.56 392.42H314.05V411.087H246.56z"/><path fill="#FF8900" d="M261.89 392.42H314.04999999999995V411.087H261.89z"/><path fill="#FDC000" d="M368.81,123c0,38.66-31.34,70-70,70V53C337.47,53,368.81,84.34,368.81,123z"/></svg>