<svg xmlns="http://www.w3.org/2000/svg" x="0" y="0" enable-background="new 0 0 512 512" version="1.1" viewBox="0 0 512 512" xml:space="preserve"><circle cx="256" cy="256" r="256" fill="#FFEC97"/><path fill="#FFDF47" d="M512,256c0-19.51-2.193-38.506-6.327-56.765l-51.47-51.455c-2.819-3.088-6.874-5.027-11.385-5.027	c-3.136,0-6.049,0.942-8.483,2.549l-37.195-37.163c-8.434-8.988-20.403-14.625-33.625-14.625l0,0	c-25.382,0-46.15,20.767-46.15,46.15v16.576l-82.711-82.659c-11.154-12.937-27.649-21.139-46.071-21.139	c-33.591,0-60.821,27.231-60.821,60.821c0,18.422,8.201,34.917,21.139,46.071l76.264,76.317l-34.177,32.214l-73.942-69.696	L19.667,301l209.616,209.616C238.065,511.527,246.977,512,256,512C397.385,512,512,397.385,512,256z"/><path fill="#E67500" d="M362.307 301L264.929 198.171 155.834 301z"/><path fill="#9A4C00" d="M362.31 301L256 301 256 206.59 264.93 198.17 343.58 281.22z"/><path fill="#FF9A00" d="M19.667 301L117.044 198.171 226.139 301z"/><path fill="#FFB84D" d="M256,512c125.923,0,230.611-90.917,252.003-210.69C438.23,282.618,350.844,280,256,280	S73.77,282.618,3.997,301.31C25.389,421.083,130.077,512,256,512z"/><path fill="#FF9A00" d="M508,301.31C486.61,421.08,381.92,512,256,512V280c30.05,0,59.35,0.27,87.58,1.22	C404.45,283.27,460.34,288.54,508,301.31z"/><g fill="#E67500"><path d="M279.18 315.83H335.18V333.163H279.18z"/><path d="M407 333.17H463V350.50300000000004H407z"/></g><path fill="#00C379" d="M442.817,142.753c-8.517,0-15.422,6.905-15.422,15.422v46.269h-17.732v-64.78	c0-25.382-20.767-46.15-46.15-46.15l0,0c-25.382,0-46.15,20.767-46.15,46.15v121.78h-20.146v-46.269	c0-8.517-6.905-15.422-15.422-15.422c-8.518,0-15.422,6.905-15.422,15.422v61.691c0,8.517,6.905,15.422,15.422,15.422h35.568v64.462	h92.3V235.288h33.154c8.517,0,15.422-6.905,15.422-15.422v-61.691C458.239,149.658,451.335,142.753,442.817,142.753z"/><g fill="#00A753"><path d="M458.24 158.17v61.7c0 8.51-6.91 15.42-15.42 15.42h-33.16v121.46h-47.35V93.53c.4-.01.8-.02 1.2-.02 25.39 0 46.15 20.77 46.15 46.15v64.78h17.74v-46.27c0-8.51 6.9-15.42 15.42-15.42C451.33 142.75 458.24 149.66 458.24 158.17zM335.18 103.317V356.75h17.333V94.858C346.113 96.439 340.231 99.366 335.18 103.317z"/></g><path fill="#007F40" d="M374.514,94.858V356.75h17.333V103.317C386.796,99.366,380.915,96.439,374.514,94.858z"/><path fill="#BE6200" d="M429.264,393h-131.5v-6c0-20.158,16.342-36.5,36.5-36.5h58.5c20.158,0,36.5,16.342,36.5,36.5V393z"/><path fill="#703700" d="M429.26,387v6h-66.95v-42.5h30.45c6.1,0,11.84,1.49,16.9,4.14	C421.31,360.73,429.26,372.94,429.26,387z"/><path fill="#E67500" d="M142.4,338.5H87.557v-5.64c0-9.587,7.772-17.36,17.36-17.36h20.123c9.588,0,17.36,7.772,17.36,17.36	V338.5z"/><circle cx="188.58" cy="113.26" r="60.821" fill="#FFB84D"/><g fill="#FF9A00"><path d="M249.404,113.264c0,33.591-27.231,60.821-60.822,60.821V52.443 C222.173,52.443,249.404,79.674,249.404,113.264z"/><path d="M170.14 309.67H226.14V327.00300000000004H170.14z"/><path d="M62.22 363.08H118.22V380.413H62.22z"/><path d="M188.58 387.33H244.58V404.663H188.58z"/></g><path fill="#E67500" d="M281.15 440.75H337.15V458.08299999999997H281.15z"/><path fill="#FF9A00" d="M122.9 432.08H178.9V449.413H122.9z"/></svg>