<svg xmlns="http://www.w3.org/2000/svg" x="0" y="0" enable-background="new 0 0 512 512" version="1.1" viewBox="0 0 512 512" xml:space="preserve"><circle cx="256" cy="256" r="256" fill="#00FFEA"/><path fill="#00CEB4" d="M512,256c0-4.291-0.11-8.556-0.319-12.795l-62.656-63.23c-1.34-1.473-2.873-2.799-4.56-3.917	l-20.321-20.124v-0.002l-0.001,0.001v-0.001v0.002c-0.02,0.046-5.661,13.124-17.144,18.357	c-8.977,4.098-14.943,13.906-13.285,22.563l-80.717-80.685c-3.173-3.349-6.785-6.346-10.741-8.855l-46.255-46.116	c0,0-13.141,30.457-39.789,42.602c-29.071,13.273-44.571,52.35-17.303,73.955c0.427,0.548,0.874,1.09,1.341,1.625h-9.722v40.544	l-16.277-16.931c-1.523-1.595-3.278-3.003-5.209-4.141l-19.275-19.469v-0.002l-0.001,0.001l-0.001-0.001	c0,0-5.661,13.126-17.144,18.359c-0.489,0.223-0.967,0.469-1.438,0.726l-18.166-18.176c-2.189-2.491-4.924-4.585-8.019-5.998	l-17.144-18.357h-0.001c-0.02,0.046-5.661,13.124-17.144,18.357c-13.321,6.082-20.034,24.741-4.994,33.545	c0.801,1.502,1.892,2.924,3.303,4.224V374L201.1,506.079C218.788,509.945,237.153,512,256,512C397.385,512,512,397.385,512,256z"/><path fill="#FEC000" d="M295.788,103.801c-26.648-12.145-39.741-42.495-39.787-42.602v-0.005L256,61.196l-0.001-0.002v0.005	c-0.046,0.107-13.139,30.457-39.787,42.602c-40.987,18.713-55.043,88.74,39.787,88.741l0,0H256h0.001l0,0	C350.831,192.54,336.775,122.514,295.788,103.801z"/><path fill="#FF9600" d="M327.29,149.32c0,11.14-4.87,22.01-16.35,30.06c-11.32,7.95-29.09,13.16-54.94,13.16V61.2	c0.05,0.11,13.14,30.46,39.79,42.6C314.28,112.24,327.29,131.13,327.29,149.32z"/><path fill="#FEC000" d="M166.912,197.74c-11.482-5.233-17.124-18.311-17.144-18.357v-0.002v0.001l-0.001-0.001v0.002	c-0.02,0.046-5.661,13.124-17.144,18.357c-17.661,8.063-23.717,38.237,17.144,38.237l0,0l0,0h0.001l0,0	C190.629,235.977,184.573,205.803,166.912,197.74z"/><path fill="#FF9600" d="M379.376,197.74c-11.482-5.233-17.124-18.311-17.144-18.357v-0.002v0.001l-0.001-0.001v0.002	c-0.02,0.046-5.661,13.124-17.144,18.357c-17.661,8.063-23.717,38.237,17.144,38.237l0,0h0.001l0,0l0,0	C403.094,235.977,397.037,205.803,379.376,197.74z"/><path fill="#FFFFEA" d="M321.471 230.582L321.471 179.381 190.529 179.381 190.529 230.582 96.888 230.582 96.888 374 415.112 374 415.112 230.582z"/><path fill="#FFF5CB" d="M415.11 230.58L415.11 374 256 374 256 179.38 321.47 179.38 321.47 230.58z"/><path fill="#FFED97" d="M299.882,374h-87.765v-82.254c0-24.236,19.647-43.882,43.882-43.882l0,0	c24.236,0,43.882,19.647,43.882,43.882V374H299.882z"/><path fill="#FEC000" d="M299.88,291.75V374H256V247.86c12.12,0,23.09,4.91,31.03,12.86	C294.97,268.66,299.88,279.63,299.88,291.75z"/><path fill="#FFED97" d="M166.301,374h-38.298v-53.403c0-10.576,8.573-19.149,19.149-19.149l0,0	c10.576,0,19.149,8.573,19.149,19.149V374z"/><path fill="#FEC000" d="M383.997,374h-38.298v-53.403c0-10.576,8.573-19.149,19.149-19.149l0,0	c10.576,0,19.149,8.573,19.149,19.149L383.997,374L383.997,374z"/><path fill="#FFED97" d="M69.02 207.68H106.69V374H69.02z"/><path fill="#FEC000" d="M405.31 207.68H442.98V374H405.31z"/><path fill="#FFAA20" d="M105.001,174.291c-11.482-5.233-17.124-18.311-17.144-18.357v-0.002v0.001l-0.001-0.001v0.002	c-0.02,0.046-5.661,13.124-17.144,18.357c-17.661,8.063-23.717,38.237,17.144,38.237l0,0c0,0,0,0,0.001,0l0,0l0,0	C128.718,212.528,122.661,182.355,105.001,174.291z"/><path fill="#E67500" d="M441.287,174.291c-11.482-5.233-17.124-18.311-17.144-18.357v-0.002v0.001v-0.001v0.002	c-0.02,0.046-5.661,13.124-17.144,18.357c-17.661,8.063-23.717,38.237,17.144,38.237l0,0l0,0l0,0l0,0	C465.005,212.528,458.948,182.355,441.287,174.291z"/><path fill="#FFC473" d="M256,512c100.82,0,188.013-58.29,229.755-143H26.245C67.987,453.71,155.18,512,256,512z"/><g fill="#FFAA20"><path d="M485.76,369C444.01,453.71,356.82,512,256,512V369H485.76z"/><path d="M156 444.83H230.64V463.49699999999996H156z"/><path d="M95.06 401.45H169.7V420.11699999999996H95.06z"/></g><g fill="#FF8900"><path d="M280.65 454.17H299.15099999999995V472.837H280.65z"/><path d="M309.98 454.17H357.23V472.837H309.98z"/><path d="M368.15 397H425.006V415.66700000000003H368.15z"/></g><path fill="#FFAA20" d="M237.81 400H305.3V418.66700000000003H237.81z"/><path fill="#FF8900" d="M256 400H305.3V418.66700000000003H256z"/></svg>