<svg xmlns="http://www.w3.org/2000/svg" width="512pt" height="512pt" viewBox="0 0 512 512"><path fill="#595959" d="m512 256c0 141.386719-114.613281 256-256 256s-256-114.613281-256-256 114.613281-256 256-256 256 114.613281 256 256zm0 0"/><path fill="#383838" d="m512 256c0-9.890625-.582031-19.640625-1.671875-29.238281l-115.261719-115.265625-22.375 63.765625-116.691406-116.691407 1.15625 172.992188-70.871094-70.871094 25.785156 147.898438-104.183593 2.671875 62.21875 62.214843-53.929688 26.199219 110.660157 110.660157c9.574218 1.085937 19.300781 1.664062 29.164062 1.664062 141.386719 0 256-114.613281 256-256zm0 0"/><path fill="#86c42b" d="m388.40625 255.4375c-7.871094-1.164062-15.597656-.324219-22.648438 2.46875l-24.925781 9.867188 36.683594-60.277344c5.179687-8.511719 8.460937-18.042969 9.613281-27.9375l7.9375-68.058594-56.804687 38.320312c-8.257813 5.570313-15.214844 12.863282-20.394531 21.375l-25.121094 41.273438v-57.984375c0-10.484375-2.265625-20.847656-6.640625-30.378906l-30.105469-65.535157-30.105469 65.535157c-4.375 9.53125-6.640625 19.894531-6.640625 30.378906v57.984375l-25.121094-41.273438c-5.179687-8.511718-12.136718-15.804687-20.394531-21.375l-56.804687-38.320312 7.9375 68.058594c1.152344 9.894531 4.433594 19.425781 9.613281 27.9375l36.683594 60.277344-24.925781-9.867188c-7.050782-2.792969-14.777344-3.632812-22.648438-2.46875l-54.152344 8.019531 33.980469 42.917969c4.941406 6.242188 11.148437 10.917969 18.199219 13.710938l60.597656 23.996093-28.292969 12.164063c-5.207031 2.238281-9.742187 5.867187-13.296875 10.636718l-24.453125 32.792969 40.625 4.816407c5.90625.699218 11.660157-.09375 16.867188-2.335938l61.207031-26.3125c1.808594-.777344 3.511719-1.734375 5.125-2.820312v79.308593h32v-79.308593c1.617188 1.085937 3.320312 2.042968 5.128906 2.820312l61.207032 26.3125c5.203124 2.242188 10.957031 3.035156 16.863281 2.335938l40.625-4.816407-24.449219-32.792969c-3.554688-4.769531-8.09375-8.398437-13.300781-10.636718l-28.292969-12.164063 60.601562-23.996093c7.050782-2.792969 13.257813-7.46875 18.199219-13.710938l33.976563-42.917969zm0 0"/><path fill="#78b22a" d="m255.90625 452.332031h16.09375v-79.308593c1.613281 1.085937 3.320312 2.042968 5.128906 2.820312l61.203125 26.3125c5.207031 2.242188 10.960938 3.035156 16.867188 2.335938l40.625-4.816407-24.453125-32.792969c-3.554688-4.769531-8.089844-8.398437-13.296875-10.636718l-28.292969-12.164063 60.597656-23.996093c7.050782-2.792969 13.261719-7.46875 18.199219-13.710938l33.980469-42.917969-54.148438-8.019531c-7.875-1.164062-15.601562-.324219-22.652344 2.46875l-24.921874 9.867188 36.679687-60.277344c5.179687-8.511719 8.460937-18.042969 9.613281-27.9375l7.9375-68.058594-56.800781 38.320312c-8.261719 5.570313-15.21875 12.863282-20.398437 21.375l-25.117188 41.273438v-57.984375c0-10.484375-2.265625-20.847656-6.644531-30.378906l-30.105469-65.535157zm0 0"/></svg>