<svg xmlns="http://www.w3.org/2000/svg" width="512pt" height="512pt" viewBox="0 0 512 512"><path fill="#93d632" d="m512 256c0 141.386719-114.613281 256-256 256s-256-114.613281-256-256 114.613281-256 256-256 256 114.613281 256 256zm0 0"/><path fill="#86c42b" d="m512 256c0-8.660156-.4375-17.214844-1.273438-25.652344l-99.65625-99.65625-213.5 82.355469-79.339843 187.066406 110.429687 110.433594c8.984375.953125 18.101563 1.453125 27.339844 1.453125 141.386719 0 256-114.613281 256-256zm0 0"/><path fill="#595959" d="m455.375 256c0 110.113281-89.261719 199.375-199.375 199.375s-199.375-89.261719-199.375-199.375 89.261719-199.375 199.375-199.375 199.375 89.261719 199.375 199.375zm0 0"/><path fill="#383838" d="m455.375 256c0-109.945312-88.992188-199.097656-198.875-199.367188v398.734376c109.882812-.269532 198.875-89.421876 198.875-199.367188zm0 0"/><path fill="#828181" d="m257 56.636719c-.335938 0-.664062-.011719-1-.011719-75.15625 0-140.589844 41.59375-174.566406 103.007812l175.566406 97.1875zm0 0"/><path fill="#6e6e6e" d="m256.5 256.488281v198.539063c75.066406-.03125 139.945312-41.339844 173.835938-102.253906zm0 0"/><path fill="#f03049" d="m336.210938 256c0 44.300781-35.910157 80.210938-80.210938 80.210938s-80.210938-35.910157-80.210938-80.210938 35.910157-80.210938 80.210938-80.210938 80.210938 35.910157 80.210938 80.210938zm0 0"/><path fill="#d1093a" d="m336.210938 256c0-44.132812-35.644532-79.929688-79.710938-80.199219v160.398438c44.066406-.269531 79.710938-36.066407 79.710938-80.199219zm0 0"/><path fill="#93d632" d="m291.070312 256c0 19.367188-15.703124 35.070312-35.070312 35.070312s-35.070312-15.703124-35.070312-35.070312 15.703124-35.070312 35.070312-35.070312 35.070312 15.703124 35.070312 35.070312zm0 0"/></svg>