<svg xmlns="http://www.w3.org/2000/svg" width="512pt" height="512pt" viewBox="0 0 512 512"><path fill="#595959" d="m512 256c0 141.386719-114.613281 256-256 256s-256-114.613281-256-256 114.613281-256 256-256 256 114.613281 256 256zm0 0"/><path fill="#383838" d="m512 256c0-12.710938-.941406-25.203125-2.730469-37.417969l-141.582031-141.582031-217.140625 85.351562-21.53125 181.207032 165.550781 165.550781c123.085938-18.597656 217.433594-124.832031 217.433594-253.109375zm0 0"/><path fill="#bf947a" d="M354.667969 339.992188c-8.285157 0-15-6.714844-15-15v-163.648438c0-8.285156 6.714843-15 15-15 8.28125 0 15 6.714844 15 15v163.648438c0 8.285156-6.71875 15-15 15zm0 0M317 356c-8.285156 0-15-6.714844-15-15v-163.648438c0-8.285156 6.714844-15 15-15s15 6.714844 15 15v163.648438c0 8.285156-6.714844 15-15 15zm0 0"/><path fill="#cfa388" d="m139.667969 348c-8.285157 0-15-6.714844-15-15v-163.648438c0-8.285156 6.714843-15 15-15 8.28125 0 15 6.714844 15 15v163.648438c0 8.285156-6.71875 15-15 15zm0 0"/><path fill="#faa68e" d="m439.578125 434.394531-32.839844-41.519531-101.933593-37.121094c-9.402344-3.425781-15.65625-12.363281-15.65625-22.371094v-22.078124h-66.296876v22.078124c0 10.007813-6.253906 18.945313-15.65625 22.371094l-101.933593 37.121094-31.484375 42.910156c46.417968 47.046875 110.910156 76.214844 182.222656 76.214844 72.011719 0 137.066406-29.746094 183.578125-77.605469zm0 0"/><path fill="#e09380" d="m406.738281 392.875-101.933593-37.121094c-9.402344-3.425781-15.65625-12.363281-15.65625-22.371094v-22.078124h-33.242188v200.695312h.09375c72.011719 0 137.066406-29.746094 183.582031-77.605469zm0 0"/><path fill="#faa68e" d="m198.667969 218.238281c0 15.726563-12.746094 28.472657-28.472657 28.472657-15.722656 0-28.46875-12.746094-28.46875-28.472657 0-15.722656 12.746094-28.46875 28.46875-28.46875 15.726563 0 28.472657 12.746094 28.472657 28.46875zm0 0"/><path fill="#e09380" d="m370.273438 218.238281c0 15.726563-12.746094 28.472657-28.46875 28.472657-15.726563 0-28.472657-12.746094-28.472657-28.472657 0-15.722656 12.746094-28.46875 28.472657-28.46875 15.722656 0 28.46875 12.746094 28.46875 28.46875zm0 0"/><path fill="#ffbeaa" d="m293.910156 324.835938-19.011718 9.765624c-11.863282 6.09375-25.933594 6.09375-37.792969 0l-19.011719-9.765624c-28.175781-14.476563-45.890625-43.488282-45.890625-75.164063v-74.109375c0-46.28125 37.515625-83.800781 83.800781-83.800781 46.277344 0 83.796875 37.519531 83.796875 83.800781v74.109375c0 31.675781-17.714843 60.691406-45.890625 75.164063zm0 0"/><path fill="#faa68e" d="m256 91.761719c-.03125 0-.0625.003906-.09375.003906v247.402344c6.515625.015625 13.03125-1.503907 18.988281-4.566407l19.015625-9.765624c28.175782-14.476563 45.890625-43.488282 45.890625-75.164063v-74.109375c0-46.28125-37.519531-83.800781-83.800781-83.800781zm0 0"/><path fill="#805142" d="m326 169.5v112c0 7.273438-5.894531 13.167969-13.167969 13.167969-7.269531 0-13.167969-5.894531-13.167969-13.167969v-8.75c0-6.695312-5.425781-12.121094-12.117187-12.121094h-63.09375c-6.695313 0-12.121094 5.429688-12.121094 12.121094v8.75c0 7.273438-5.894531 13.167969-13.167969 13.167969-7.269531 0-13.164062-5.894531-13.164062-13.167969v-91.730469h-16.5v76.730469c0 47.773438 38.726562 86.5 86.5 86.5s86.5-38.726562 86.5-86.5v-76.730469zm0 0"/><path fill="#5e382c" d="m326 169.5v112c0 7.269531-5.894531 13.167969-13.167969 13.167969-7.269531 0-13.167969-5.894531-13.167969-13.167969v-8.75c0-6.695312-5.425781-12.121094-12.117187-12.121094h-31.644531v92.367188c.035156 0 .066406.003906.097656.003906 47.773438 0 86.5-38.726562 86.5-86.5v-76.730469zm0 0"/><path fill="#f03049" d="m406.738281 392.875-76.742187-27.949219-74.089844 73.964844-73.902344-73.964844-76.742187 27.949219-31.484375 42.910156c46.417968 47.046875 110.910156 76.214844 182.222656 76.214844 72.011719 0 137.066406-29.746094 183.582031-77.605469zm0 0"/><path fill="#d1093a" d="m406.738281 392.875-76.742187-27.949219-74.089844 73.964844v73.105469c.03125 0 .0625.003906.09375.003906 72.011719 0 137.066406-29.746094 183.582031-77.605469zm0 0"/><path fill="#cfa388" d="m180 339.992188c-8.285156 0-15-6.714844-15-15v-163.648438c0-8.285156 6.714844-15 15-15s15 6.714844 15 15v163.648438c0 8.285156-6.714844 15-15 15zm0 0"/><path fill="#f03049" d="m254.851562 33.792969c-80.632812 0-146 52.941406-146 118.246093 0 .203126.003907.40625.003907.609376.191406 30.789062 25.472656 55.53125 56.261719 55.53125h1.375c16.652343-31.8125 49.960937-53.535157 88.359374-53.535157 38.398438 0 71.707032 21.722657 88.359376 53.535157h1.375c30.785156 0 56.070312-24.742188 56.261718-55.53125.003906-.203126.003906-.40625.003906-.609376 0-65.304687-65.367187-118.246093-146-118.246093zm0 0"/><path fill="#d1093a" d="m255.90625 33.804688v120.855468c37.953125.394532 70.804688 21.996094 87.304688 53.519532h1.375c30.785156 0 56.070312-24.742188 56.261718-55.53125 0-.203126.003906-.40625.003906-.609376 0-65.019531-64.800781-117.773437-144.945312-118.234374zm0 0"/><path fill="#93d632" d="m165.117188 208.179688h1.375c16.65625-31.8125 49.960937-53.535157 88.359374-53.535157 38.398438 0 71.707032 21.71875 88.359376 53.535157h1.375c19.640624 0 37.03125-10.078126 47.105468-25.367188-20.683594-44.941406-74.140625-76.949219-136.839844-76.949219-62.695312 0-116.15625 32.007813-136.839843 76.949219 10.074219 15.289062 27.464843 25.367188 47.105469 25.367188zm0 0"/><path fill="#86c42b" d="m255.90625 105.878906v48.78125c37.953125.394532 70.804688 21.996094 87.304688 53.519532h1.375c19.640624 0 37.03125-10.078126 47.105468-25.367188-20.566406-44.6875-73.546875-76.574219-135.785156-76.933594zm0 0"/><path fill="#ffe733" d="m254.851562 114.738281c60.226563 0 111.925782 29.539063 134.238282 71.703125 4.683594-6.003906 8.160156-12.976562 10.074218-20.578125-10.722656-56.746093-71.25-100.214843-144.3125-100.214843s-133.589843 43.46875-144.3125 100.214843c1.914063 7.601563 5.390626 14.578125 10.074219 20.578125 22.3125-42.164062 74.011719-71.703125 134.238281-71.703125zm0 0"/><path fill="#f7c908" d="m255.90625 65.660156v49.097656c59.773438.34375 111 29.769532 133.183594 71.683594 4.683594-6 8.160156-12.976562 10.074218-20.578125-10.671874-56.472656-70.667968-99.789062-143.257812-100.203125zm0 0"/><path fill="#ffbeaa" d="m227.667969 275.332031h56.667969v14.667969h-56.667969zm0 0"/><path fill="#faa68e" d="m255.90625 275.332031h28.425781v14.667969h-28.425781zm0 0"/></svg>